<svg width="137" height="17" viewBox="0 0 137 17" fill="none" xmlns="http://www.w3.org/2000/svg">
<path d="M0.264205 16V1.45455H3.33949V13.4645H9.57528V16H0.264205ZM11.555 16V5.09091H14.5806V16H11.555ZM13.0749 3.68466C12.6251 3.68466 12.2392 3.53551 11.9173 3.23722C11.6 2.93419 11.4414 2.57197 11.4414 2.15057C11.4414 1.7339 11.6 1.37642 11.9173 1.07812C12.2392 0.775094 12.6251 0.623579 13.0749 0.623579C13.5247 0.623579 13.9083 0.775094 14.2255 1.07812C14.5475 1.37642 14.7085 1.7339 14.7085 2.15057C14.7085 2.57197 14.5475 2.93419 14.2255 3.23722C13.9083 3.53551 13.5247 3.68466 13.0749 3.68466ZM22.8068 5.09091V7.36364H16.2372V5.09091H22.8068ZM17.7287 2.47727H20.7543V12.6477C20.7543 12.9271 20.7969 13.1449 20.8821 13.3011C20.9673 13.4527 21.0857 13.5592 21.2372 13.6207C21.3935 13.6823 21.5734 13.7131 21.777 13.7131C21.919 13.7131 22.0611 13.7012 22.2031 13.6776C22.3452 13.6491 22.4541 13.6278 22.5298 13.6136L23.0057 15.8651C22.8542 15.9124 22.6411 15.9669 22.3665 16.0284C22.0919 16.0947 21.758 16.1349 21.3651 16.1491C20.6359 16.1776 19.9967 16.0805 19.4474 15.858C18.9029 15.6354 18.4792 15.2898 18.1761 14.821C17.8731 14.3523 17.724 13.7604 17.7287 13.0455V2.47727ZM30.5803 5.09091V7.36364H24.0107V5.09091H30.5803ZM25.5021 2.47727H28.5277V12.6477C28.5277 12.9271 28.5703 13.1449 28.6555 13.3011C28.7408 13.4527 28.8591 13.5592 29.0107 13.6207C29.1669 13.6823 29.3468 13.7131 29.5504 13.7131C29.6925 13.7131 29.8345 13.7012 29.9766 13.6776C30.1186 13.6491 30.2275 13.6278 30.3033 13.6136L30.7791 15.8651C30.6276 15.9124 30.4145 15.9669 30.1399 16.0284C29.8653 16.0947 29.5315 16.1349 29.1385 16.1491C28.4093 16.1776 27.7701 16.0805 27.2209 15.858C26.6764 15.6354 26.2526 15.2898 25.9496 14.821C25.6465 14.3523 25.4974 13.7604 25.5021 13.0455V2.47727ZM35.8111 1.45455V16H32.7855V1.45455H35.8111ZM43.2063 16.2131C42.0842 16.2131 41.1183 15.9858 40.3086 15.5312C39.5037 15.072 38.8834 14.4233 38.4478 13.5852C38.0122 12.7424 37.7944 11.7457 37.7944 10.5952C37.7944 9.47301 38.0122 8.48816 38.4478 7.64062C38.8834 6.79309 39.4966 6.13258 40.2873 5.65909C41.0827 5.18561 42.0155 4.94886 43.0856 4.94886C43.8053 4.94886 44.4753 5.06487 45.0955 5.29688C45.7205 5.52415 46.265 5.86742 46.729 6.3267C47.1978 6.78598 47.5624 7.36364 47.8228 8.05966C48.0832 8.75095 48.2134 9.56061 48.2134 10.4886V11.3196H39.0018V9.4446H45.3654C45.3654 9.009 45.2707 8.62311 45.0813 8.28693C44.8919 7.95076 44.6291 7.68797 44.293 7.49858C43.9615 7.30445 43.5756 7.20739 43.1353 7.20739C42.676 7.20739 42.2688 7.31392 41.9137 7.52699C41.5633 7.73532 41.2887 8.01705 41.0898 8.37216C40.891 8.72254 40.7892 9.11316 40.7844 9.54403V11.3267C40.7844 11.8665 40.8839 12.3329 41.0827 12.7259C41.2863 13.1188 41.5728 13.4219 41.9421 13.6349C42.3114 13.848 42.7494 13.9545 43.256 13.9545C43.5922 13.9545 43.9 13.9072 44.1793 13.8125C44.4587 13.7178 44.6978 13.5758 44.8967 13.3864C45.0955 13.197 45.247 12.965 45.3512 12.6903L48.1495 12.875C48.0075 13.5473 47.7163 14.1345 47.2759 14.6364C46.8403 15.1335 46.2769 15.5218 45.5856 15.8011C44.899 16.0758 44.1059 16.2131 43.2063 16.2131Z" fill="#FAF014"/>
<path d="M54.8736 16V1.45455H57.9489V13.4645H64.1847V16H54.8736ZM71.136 16.2131C70.0138 16.2131 69.0479 15.9858 68.2383 15.5312C67.4334 15.072 66.8131 14.4233 66.3775 13.5852C65.9419 12.7424 65.7241 11.7457 65.7241 10.5952C65.7241 9.47301 65.9419 8.48816 66.3775 7.64062C66.8131 6.79309 67.4263 6.13258 68.217 5.65909C69.0124 5.18561 69.9452 4.94886 71.0153 4.94886C71.735 4.94886 72.4049 5.06487 73.0252 5.29688C73.6502 5.52415 74.1947 5.86742 74.6587 6.3267C75.1275 6.78598 75.4921 7.36364 75.7525 8.05966C76.0129 8.75095 76.1431 9.56061 76.1431 10.4886V11.3196H66.9315V9.4446H73.2951C73.2951 9.009 73.2004 8.62311 73.011 8.28693C72.8216 7.95076 72.5588 7.68797 72.2227 7.49858C71.8912 7.30445 71.5053 7.20739 71.065 7.20739C70.6057 7.20739 70.1985 7.31392 69.8434 7.52699C69.493 7.73532 69.2184 8.01705 69.0195 8.37216C68.8207 8.72254 68.7189 9.11316 68.7141 9.54403V11.3267C68.7141 11.8665 68.8136 12.3329 69.0124 12.7259C69.216 13.1188 69.5025 13.4219 69.8718 13.6349C70.2411 13.848 70.6791 13.9545 71.1857 13.9545C71.5219 13.9545 71.8297 13.9072 72.109 13.8125C72.3884 13.7178 72.6275 13.5758 72.8263 13.3864C73.0252 13.197 73.1767 12.965 73.2809 12.6903L76.0792 12.875C75.9371 13.5473 75.646 14.1345 75.2056 14.6364C74.77 15.1335 74.2066 15.5218 73.5153 15.8011C72.8287 16.0758 72.0356 16.2131 71.136 16.2131ZM78.1175 16V5.09091H81.0011V7.01562H81.1289C81.3562 6.37642 81.735 5.87216 82.2653 5.50284C82.7956 5.13352 83.43 4.94886 84.1687 4.94886C84.9168 4.94886 85.5536 5.13589 86.0792 5.50994C86.6048 5.87926 86.9551 6.38116 87.1303 7.01562H87.244C87.4665 6.39062 87.869 5.8911 88.4513 5.51705C89.0385 5.13826 89.7321 4.94886 90.5323 4.94886C91.5503 4.94886 92.3765 5.2732 93.011 5.92188C93.6502 6.56581 93.9698 7.47964 93.9698 8.66335V16H90.9513V9.25994C90.9513 8.65388 90.7904 8.19934 90.4684 7.89631C90.1464 7.59328 89.744 7.44176 89.261 7.44176C88.7118 7.44176 88.2833 7.61695 87.9755 7.96733C87.6677 8.31297 87.5138 8.76989 87.5138 9.33807V16H84.5806V9.19602C84.5806 8.66098 84.4267 8.23485 84.119 7.91761C83.8159 7.60038 83.4158 7.44176 82.9187 7.44176C82.5825 7.44176 82.2795 7.52699 82.0096 7.69744C81.7444 7.86316 81.5337 8.09754 81.3775 8.40057C81.2212 8.69886 81.1431 9.04924 81.1431 9.4517V16H78.1175ZM96.3597 16V5.09091H99.2433V7.01562H99.3711C99.5984 6.37642 99.9772 5.87216 100.507 5.50284C101.038 5.13352 101.672 4.94886 102.411 4.94886C103.159 4.94886 103.796 5.13589 104.321 5.50994C104.847 5.87926 105.197 6.38116 105.373 7.01562H105.486C105.709 6.39062 106.111 5.8911 106.694 5.51705C107.281 5.13826 107.974 4.94886 108.775 4.94886C109.792 4.94886 110.619 5.2732 111.253 5.92188C111.892 6.56581 112.212 7.47964 112.212 8.66335V16H109.194V9.25994C109.194 8.65388 109.033 8.19934 108.711 7.89631C108.389 7.59328 107.986 7.44176 107.503 7.44176C106.954 7.44176 106.525 7.61695 106.218 7.96733C105.91 8.31297 105.756 8.76989 105.756 9.33807V16H102.823V9.19602C102.823 8.66098 102.669 8.23485 102.361 7.91761C102.058 7.60038 101.658 7.44176 101.161 7.44176C100.825 7.44176 100.522 7.52699 100.252 7.69744C99.9866 7.86316 99.7759 8.09754 99.6197 8.40057C99.4634 8.69886 99.3853 9.04924 99.3853 9.4517V16H96.3597ZM119.531 16.2131C118.428 16.2131 117.474 15.9787 116.669 15.5099C115.868 15.0365 115.251 14.3783 114.815 13.5355C114.379 12.688 114.162 11.7055 114.162 10.5881C114.162 9.46117 114.379 8.47633 114.815 7.63352C115.251 6.78598 115.868 6.12784 116.669 5.65909C117.474 5.18561 118.428 4.94886 119.531 4.94886C120.634 4.94886 121.586 5.18561 122.386 5.65909C123.191 6.12784 123.811 6.78598 124.247 7.63352C124.682 8.47633 124.9 9.46117 124.9 10.5881C124.9 11.7055 124.682 12.688 124.247 13.5355C123.811 14.3783 123.191 15.0365 122.386 15.5099C121.586 15.9787 120.634 16.2131 119.531 16.2131ZM119.545 13.8693C120.047 13.8693 120.466 13.7273 120.802 13.4432C121.138 13.1544 121.392 12.7614 121.562 12.2642C121.737 11.767 121.825 11.2012 121.825 10.5668C121.825 9.93229 121.737 9.36648 121.562 8.86932C121.392 8.37216 121.138 7.97917 120.802 7.69034C120.466 7.40151 120.047 7.2571 119.545 7.2571C119.038 7.2571 118.612 7.40151 118.267 7.69034C117.926 7.97917 117.668 8.37216 117.493 8.86932C117.322 9.36648 117.237 9.93229 117.237 10.5668C117.237 11.2012 117.322 11.767 117.493 12.2642C117.668 12.7614 117.926 13.1544 118.267 13.4432C118.612 13.7273 119.038 13.8693 119.545 13.8693ZM129.893 9.69318V16H126.868V5.09091H129.751V7.01562H129.879C130.12 6.38116 130.525 5.87926 131.093 5.50994C131.662 5.13589 132.35 4.94886 133.16 4.94886C133.918 4.94886 134.578 5.11458 135.142 5.44602C135.705 5.77746 136.143 6.25095 136.456 6.86648C136.768 7.47727 136.924 8.20644 136.924 9.05398V16H133.899V9.59375C133.904 8.92614 133.733 8.4053 133.387 8.03125C133.042 7.65246 132.566 7.46307 131.96 7.46307C131.553 7.46307 131.193 7.55066 130.88 7.72585C130.573 7.90104 130.331 8.15672 130.156 8.4929C129.985 8.82434 129.898 9.22443 129.893 9.69318Z" fill="#027000"/>
</svg>
